HIERARCHY
ROOT Hips
{
	OFFSET 53.694302 15.443891 57.952705
	CHANNELS 6 Xposition Yposition Zposition Xrotation Yrotation Zrotation
	JOINT spine
	{
		OFFSET 0.000000 -0.429886 7.475594
		CHANNELS 3 Xrotation Yrotation Zrotation
		JOINT spine1
		{
			OFFSET 0.000000 -0.000002 9.923012
			CHANNELS 3 Xrotation Yrotation Zrotation
			JOINT spine2
			{
				OFFSET 0.000000 -0.000001 9.508041
				CHANNELS 3 Xrotation Yrotation Zrotation
				JOINT Neck
				{
					OFFSET 0.000000 -1.163845 24.411102
					CHANNELS 3 Xrotation Yrotation Zrotation
					JOINT Head
					{
						OFFSET 0.000000 -0.000001 7.375229
						CHANNELS 3 Xrotation Yrotation Zrotation
						End Site
						{
							OFFSET 0.000000 5.887408 17.852196
						}
					}
				}
				JOINT RightShoulder
				{
					OFFSET -4.003559 0.557467 10.267899
					CHANNELS 3 Xrotation Yrotation Zrotation
					JOINT RightArm
					{
						OFFSET 0.000000 -0.000003 13.467300
						CHANNELS 3 Xrotation Yrotation Zrotation
						JOINT RightArmRoll
						{
							OFFSET 0.000000 -0.000001 6.798576
							CHANNELS 3 Xrotation Yrotation Zrotation
							JOINT RightForeArm
							{
								OFFSET 0.000000 -0.000003 19.801804
								CHANNELS 3 Xrotation Yrotation Zrotation
								JOINT RightForeArmRoll
								{
									OFFSET 0.000000 -0.000001 7.629044
									CHANNELS 3 Xrotation Yrotation Zrotation
									JOINT RightHand
									{
										OFFSET 0.000000 -0.000003 15.309799
										CHANNELS 3 Xrotation Yrotation Zrotation
										End Site
										{
											OFFSET 0.000000 0.000000 0.100006
										}
									}
								}
							}
						}
					}
				}
				JOINT LeftShoulder
				{
					OFFSET 4.003559 0.557467 10.267899
					CHANNELS 3 Xrotation Yrotation Zrotation
					JOINT LeftArm
					{
						OFFSET 0.000000 -0.000003 13.467300
						CHANNELS 3 Xrotation Yrotation Zrotation
						JOINT LeftArmRoll
						{
							OFFSET 0.000000 -0.000001 6.798576
							CHANNELS 3 Xrotation Yrotation Zrotation
							JOINT LeftForeArm
							{
								OFFSET 0.000000 -0.000003 19.801804
								CHANNELS 3 Xrotation Yrotation Zrotation
								JOINT LeftForeArmRoll
								{
									OFFSET 0.000000 -0.000001 7.629044
									CHANNELS 3 Xrotation Yrotation Zrotation
									JOINT LeftHand
									{
										OFFSET 0.000000 -0.000003 15.309799
										CHANNELS 3 Xrotation Yrotation Zrotation
										End Site
										{
											OFFSET 0.000000 0.000000 0.100006
										}
									}
								}
							}
						}
					}
				}
			}
		}
	}
	JOINT RightUpLeg
	{
		OFFSET -6.626091 1.019269 -1.215050
		CHANNELS 3 Xrotation Yrotation Zrotation
		JOINT RightUpLegRoll
		{
			OFFSET 0.000000 -0.000002 17.951698
			CHANNELS 3 Xrotation Yrotation Zrotation
			JOINT RightLeg
			{
				OFFSET 0.000000 0.000004 -22.230396
				CHANNELS 3 Xrotation Yrotation Zrotation
				JOINT RightLegRoll
				{
					OFFSET 0.000000 -0.000004 22.303196
					CHANNELS 3 Xrotation Yrotation Zrotation
					JOINT RightFoot
					{
						OFFSET 0.000000 -0.000004 18.563599
						CHANNELS 3 Xrotation Yrotation Zrotation
						JOINT RightToeBase
						{
							OFFSET 0.000000 -0.000002 15.518303
							CHANNELS 3 Xrotation Yrotation Zrotation
							End Site
							{
								OFFSET 0.006577 0.866261 7.515388
							}
						}
					}
				}
			}
		}
	}
	JOINT LeftUpLeg
	{
		OFFSET 6.626091 1.019269 -1.215050
		CHANNELS 3 Xrotation Yrotation Zrotation
		JOINT LeftUpLegRoll
		{
			OFFSET 0.000000 -0.000002 17.951797
			CHANNELS 3 Xrotation Yrotation Zrotation
			JOINT LeftLeg
			{
				OFFSET 0.000000 -0.000004 22.230301
				CHANNELS 3 Xrotation Yrotation Zrotation
				JOINT LeftLegRoll
				{
					OFFSET 0.000000 -0.000004 22.509300
					CHANNELS 3 Xrotation Yrotation Zrotation
					JOINT LeftFoot
					{
						OFFSET 0.000000 -0.000004 18.357506
						CHANNELS 3 Xrotation Yrotation Zrotation
						JOINT LeftToeBase
						{
							OFFSET 0.000000 -0.000002 15.518295
							CHANNELS 3 Xrotation Yrotation Zrotation
							End Site
							{
								OFFSET -0.029476 0.866262 7.515366
							}
						}
					}
				}
			}
		}
	}
}
MOTION
Frames: 4
Frame Time: 0.041667
55.884995 5.972928 60.981705 9.089085 -0.088874 -0.909991 2.594377 0.259482 -0.725266 9.194821 0.477450 -1.462875 10.839756 0.459895 -1.468490 -26.283835 6.824877 -0.301166 10.407575 -10.016918 -1.062114 -11.614072 -55.605820 -13.548949 -56.250928 -127.421960 -72.436574 0.000000 0.000015 0.000001 29.702642 -16.643609 4.738841 0.000002 0.000003 -3.005338 -5.000177 -7.999518 0.000064 -24.555129 68.730288 28.671539 -74.742460 106.646997 69.176757 0.000002 -0.000000 0.000005 29.688032 11.766035 -1.738672 0.000000 0.000000 3.008020 -5.000173 8.000018 -0.000005 -87.010627 175.048132 7.126113 -179.999991 0.000005 -1.875005 91.798876 6.702716 -0.561352 -0.000004 0.000004 2.770700 69.920565 7.506465 0.433703 30.759545 -7.321810 0.681995 -86.736962 177.838619 -5.762870 -0.000005 -0.000005 -1.414581 -85.476191 -4.848761 0.638530 -0.000005 0.000001 -2.173370 69.670211 -7.097789 -1.540183 28.215735 7.347369 -0.414639 
55.880695 6.031199 60.946400 8.984299 -0.087433 -0.917848 2.597395 0.254983 -0.729554 9.200818 0.468390 -1.471188 10.845736 0.450736 -1.476694 -26.177750 6.939665 -0.259954 10.354650 -10.095684 -1.047312 -11.562792 -55.527997 -13.483486 -56.163519 -127.546229 -72.279603 0.000000 0.000014 0.000002 29.668740 -16.620900 4.717299 0.000001 0.000002 -3.005339 -5.000177 -7.999523 0.000061 -24.650335 68.808548 28.775321 -74.872445 106.716255 69.114643 0.000001 0.000001 0.000006 29.658345 11.659160 -1.702656 0.000000 0.000000 3.008020 -5.000174 8.000019 -0.000004 -86.970295 175.043091 7.154833 -179.999991 0.000005 -1.876999 91.790031 6.699796 -0.548789 -0.000005 0.000003 2.762960 69.865664 7.519116 0.406773 30.764408 -7.321853 0.682041 -86.694990 177.812855 -5.754506 -0.000005 -0.000004 -1.414360 -85.479012 -4.847420 0.637756 -0.000004 0.000000 -2.170780 69.611608 -7.098176 -1.544106 28.208253 7.347371 -0.417755 
55.844498 6.077091 60.903305 8.875324 -0.087650 -0.922899 2.601762 0.251378 -0.733349 9.209540 0.461205 -1.478586 10.854426 0.443463 -1.484000 -26.078552 7.035487 -0.225096 10.305634 -10.157107 -1.034808 -11.522147 -55.470312 -13.431788 -56.103044 -127.658735 -72.152520 0.000000 0.000013 -0.000000 29.642915 -16.597722 4.697345 0.000001 0.000001 -3.005339 -5.000179 -7.999519 0.000066 -24.737207 68.871468 28.870264 -74.947905 106.796353 69.000743 -0.000000 0.000000 0.000005 29.624573 11.550413 -1.666068 -0.000000 0.000000 3.008020 -5.000174 8.000019 -0.000004 -86.924389 175.042162 7.178713 -179.999991 0.000005 -1.877996 91.783003 6.697519 -0.536340 -0.000006 0.000004 2.756040 69.810646 7.530455 0.383530 30.767950 -7.321906 0.682021 -86.646878 177.791641 -5.748149 -0.000005 -0.000005 -1.414440 -85.479305 -4.845775 0.637283 -0.000005 0.000001 -2.168089 69.552738 -7.098979 -1.546918 28.201783 7.347386 -0.420083 
55.864697 6.129470 60.863205 8.761160 -0.090161 -0.924653 2.607803 0.248892 -0.736609 9.221604 0.456357 -1.484979 10.866518 0.438538 -1.490342 -25.987722 7.109137 -0.197416 10.261237 -10.198591 -1.024871 -11.493659 -55.435946 -13.395880 -56.073766 -127.757404 -72.060675 0.000001 0.000013 0.000002 29.626349 -16.574163 4.679240 0.000000 0.000001 -3.005339 -5.000177 -7.999519 0.000059 -24.814265 68.916575 28.954862 -74.962952 106.888922 68.830016 0.000001 0.000003 0.000006 29.586477 11.439372 -1.628715 -0.000001 0.000000 3.008020 -5.000174 8.000019 -0.000004 -86.871844 175.046096 7.197249 -179.999991 0.000005 -1.878993 91.778078 6.696030 -0.528024 -0.000005 0.000004 2.750110 69.755356 7.540233 0.364337 30.770173 -7.321953 0.681952 -86.591123 177.775986 -5.745381 -0.000005 -0.000004 -1.414900 -85.476730 -4.843778 0.637210 -0.000004 0.000000 -2.165270 69.493493 -7.100232 -1.548640 28.196635 7.347392 -0.421511 
